<svg width="20" height="20" viewBox="0 0 20 20" fill="none" xmlns="http://www.w3.org/2000/svg">
<path d="M20 10C20 15.5228 15.5228 20 10 20C4.47715 20 0 15.5228 0 10C0 4.47715 4.47715 0 10 0C15.5228 0 20 4.47715 20 10Z" fill="#7E7E7E"/>
<path d="M17.8 10.2C17.8 14.6183 14.2183 18.2 9.80002 18.2C5.38174 18.2 1.80002 14.6183 1.80002 10.2C1.80002 5.78173 5.38174 2.2 9.80002 2.2C14.2183 2.2 17.8 5.78173 17.8 10.2Z" fill="white"/>
<path d="M5.53072 14.7197C6.30688 15.4547 7.25232 15.9869 8.2833 16.2692C9.31428 16.5515 10.399 16.5752 11.4413 16.3382C12.4836 16.1012 13.4514 15.6107 14.2589 14.9104C15.0664 14.21 15.6887 13.3213 16.0707 12.3229C16.4527 11.3246 16.5826 10.2474 16.4489 9.18689C16.3152 8.12635 15.922 7.11516 15.3041 6.24289C14.6863 5.37061 13.8628 4.66418 12.9067 4.18616C11.9507 3.70814 10.8914 3.47329 9.8229 3.50241L9.99999 10L5.53072 14.7197Z" fill="#7E7E7E"/>
</svg>
